<svg width="16" height="16" viewBox="0 0 16 16" fill="none" xmlns="http://www.w3.org/2000/svg">
<g clip-path="url(#clip0_1_6229)">
<mask id="mask0_1_6229" style="mask-type:luminance" maskUnits="userSpaceOnUse" x="0" y="0" width="16" height="16">
<path d="M16 0H0V16H16V0Z" fill="white"/>
</mask>
<g mask="url(#mask0_1_6229)">
<path d="M14.4 1.6H13.6V0.8C13.6 0.32 13.28 0 12.8 0C12.32 0 12 0.32 12 0.8V1.6H4V0.8C4 0.32 3.68 0 3.2 0C2.72 0 2.4 0.32 2.4 0.8V1.6H0.8C0.4 1.6 0 1.92 0 2.4V13.6C0 14.08 0.4 14.4 0.8 14.4H5.68C5.12 13.44 4.8 12.32 4.8 11.2C4.8 7.68 7.68 4.8 11.2 4.8C12.72 4.8 14.08 5.36 15.2 6.24V2.4C15.2 2 14.8 1.6 14.4 1.6Z" fill="#D6D7D8"/>
<path d="M11.2004 6.3999C8.56039 6.3999 6.40039 8.5599 6.40039 11.1999C6.40039 13.8399 8.56039 15.9999 11.2004 15.9999C13.8404 15.9999 16.0004 13.8399 16.0004 11.1999C16.0004 8.5599 13.8404 6.3999 11.2004 6.3999ZM12.8004 11.9999H11.2004C10.7204 11.9999 10.4004 11.6799 10.4004 11.1999V8.7999C10.4004 8.3199 10.7204 7.9999 11.2004 7.9999C11.6804 7.9999 12.0004 8.3199 12.0004 8.7999V10.3999H12.8004C13.2804 10.3999 13.6004 10.7199 13.6004 11.1999C13.6004 11.6799 13.2804 11.9999 12.8004 11.9999Z" fill="#D6D7D8"/>
</g>
</g>
<defs>
<clipPath id="clip0_1_6229">
<rect width="16" height="16" fill="white"/>
</clipPath>
</defs>
</svg>
