<svg width="24" height="24" viewBox="0 0 24 24" fill="none" xmlns="http://www.w3.org/2000/svg">
<g clip-path="url(#clip0_1_6176)">
<g clip-path="url(#clip1_1_6176)">
<g clip-path="url(#clip2_1_6176)">
<mask id="mask0_1_6176" style="mask-type:luminance" maskUnits="userSpaceOnUse" x="0" y="0" width="24" height="24">
<path d="M24 0H0V24H24V0Z" fill="white"/>
</mask>
<g mask="url(#mask0_1_6176)">
<path d="M24 12C24 18.6275 18.6274 24 12 24C9.95186 24 8.02358 23.4869 6.33666 22.5822C4.94795 21.8375 4.22922 20.8274 3.23548 19.6197C2.29755 18.4799 1.05944 17.164 0.590729 15.7292C0.207341 14.5554 0 13.3019 0 12C0 9.78454 0.600377 7.70929 1.64734 5.92807C3.73224 2.38096 7.58805 0.880961 12 0.880961C13.32 0.880961 14.5903 0.213196 15.7783 0.606937C20.5545 2.19004 24 6.69268 24 12Z" fill="url(#paint0_linear_1_6176)"/>
<path d="M14.6712 1.68978C13.4633 1.28117 12.1693 1.05957 10.8235 1.05957C8.02361 1.05957 5.6862 2.25703 3.64474 3.86437C3.01213 4.51355 2.21415 4.99576 1.74065 5.77444C1.26714 6.55312 0.879797 7.38997 0.591797 8.27185C0.64295 8.33392 0.700503 8.39195 0.765867 8.44357C1.06709 8.68141 1.46723 8.75308 1.83227 8.63458L5.09688 7.57463C5.49222 7.44625 5.92611 7.55049 6.21999 7.84442L7.00422 8.62865C7.32178 8.94621 7.41566 9.42428 7.24182 9.83835C6.99133 10.435 7.30455 11.1183 7.92008 11.3179L8.86361 11.6239C9.00587 11.6701 9.13043 11.7591 9.22018 11.8787C9.45721 12.1948 9.39778 12.6424 9.08644 12.8857L8.70498 13.1837C8.34912 13.4617 8.14112 13.8882 8.14112 14.3398V14.6767C8.14112 15.2552 8.42587 15.7965 8.90253 16.1242L9.55707 16.5742C9.61651 16.6151 9.68309 16.6444 9.7534 16.6606L10.1396 16.7497C10.9541 16.9377 11.5781 17.5932 11.7258 18.416C11.7824 18.7311 11.7658 19.0549 11.6773 19.3625L11.0345 21.5968C10.9289 21.964 11.2046 22.3302 11.5867 22.3302C11.7314 22.3302 11.8708 22.2756 11.977 22.1774L14.4393 19.8988C14.7864 19.5777 15.0682 19.1927 15.2695 18.7649L15.8193 17.5967C16.0011 17.2103 16.1143 16.7951 16.1538 16.3699L16.3676 14.0655C16.4608 13.0612 16.0228 12.0812 15.2124 11.4807C14.7153 11.1124 14.1131 10.9135 13.4945 10.9135H13.054C12.3983 10.9135 11.8454 10.4249 11.7648 9.77416C11.7067 9.30437 11.9087 8.84014 12.2921 8.56249L12.7791 8.20992C12.9474 8.08799 13.1426 8.00828 13.3482 7.97741L14.5427 7.79821C15.3723 7.67378 16.0965 7.17002 16.5017 6.43552C17.0262 5.48494 17.0528 4.33802 16.5732 3.36409C16.1853 2.57661 15.5027 1.9711 14.6712 1.68978Z" fill="url(#paint1_linear_1_6176)"/>
<path d="M12.0003 0C11.6834 0 11.3694 0.0125176 11.0586 0.0366118C17.2459 0.516894 22.117 5.68951 22.117 12C22.117 18.3105 17.2459 23.4831 11.0586 23.9634C11.3694 23.9875 11.6834 24 12.0003 24C15.458 24 18.5741 22.5376 20.7639 20.1976C20.7639 20.1976 23.9062 15.1697 23.9062 12C23.9062 9.68706 22.2122 5.69468 22.2122 5.69468C20.0974 2.27689 16.3147 0 12.0003 0Z" fill="url(#paint2_linear_1_6176)"/>
<path d="M17.7499 2.30447C17.3621 1.51699 16.6795 0.911529 15.848 0.630212C14.6401 0.221553 13.3461 0 12.0003 0C7.60136 0 3.75533 2.36701 1.6662 5.89685C1.37322 6.39191 1.49124 7.02748 1.94272 7.384C2.24395 7.62184 2.64409 7.69351 3.00912 7.57501L6.27373 6.51506C6.66907 6.38668 7.10296 6.49092 7.39684 6.78485L8.18108 7.56908C8.49863 7.88664 8.59251 8.36471 8.41868 8.77878C8.16818 9.37543 8.4814 10.0587 9.09693 10.2584L10.0405 10.5644C10.1827 10.6105 10.3073 10.6995 10.397 10.8192C10.6341 11.1352 10.5746 11.5829 10.2633 11.8261L9.88183 12.1241C9.52597 12.4022 9.31797 12.8287 9.31797 13.2803V13.6172C9.31797 14.1956 9.60272 14.737 10.0794 15.0647L10.7339 15.5147C10.7934 15.5555 10.86 15.5848 10.9303 15.6011L11.3164 15.6902C12.131 15.8782 12.755 16.5337 12.9027 17.3565C12.9592 17.6715 12.9426 17.9953 12.8541 18.303L12.2114 20.5373C12.1057 20.9046 12.3814 21.2707 12.7636 21.2707C12.9083 21.2707 13.0476 21.2161 13.1538 21.1178L15.6162 18.8392C15.9632 18.5181 16.245 18.1332 16.4464 17.7054L16.9961 16.5371C17.178 16.1507 17.2912 15.7356 17.3306 15.3104L17.5444 13.006C17.6376 12.0017 17.1996 11.0216 16.3892 10.4211C15.8922 10.0528 15.29 9.85402 14.6714 9.85402H14.2308C13.5751 9.85402 13.0223 9.36537 12.9417 8.71464C12.8835 8.24485 13.0856 7.78061 13.469 7.50296L13.9559 7.1504C14.1243 7.02847 14.3195 6.94875 14.5251 6.91788L15.7196 6.73868C16.5491 6.61426 17.2734 6.11049 17.6786 5.376C18.203 4.42532 18.2296 3.2784 17.7499 2.30447Z" fill="url(#paint3_linear_1_6176)"/>
<path d="M4.86707 17.8518C4.05103 17.4466 3.40867 16.7605 3.05813 15.9195L2.67728 15.0059C2.52161 14.6324 2.17427 14.3739 1.77187 14.3319C0.973288 14.2486 0.355405 15.0177 0.608111 15.7798C1.58194 18.7164 3.65945 21.1494 6.34905 22.5879L6.52303 20.8456C6.64731 19.6004 5.98792 18.4082 4.86707 17.8518Z" fill="url(#paint4_linear_1_6176)"/>
<path d="M22.2111 5.69507L22.1359 5.83596C21.5028 7.02312 21.6767 8.47907 22.5717 9.48363C23.0975 10.0738 23.3881 10.8367 23.3881 11.6272C23.3881 12.5523 22.9905 13.4328 22.2964 14.0445L21.3578 14.8719C20.7478 15.4096 20.3983 16.1835 20.3983 16.9966V17.2422C20.3983 17.7237 20.2755 18.1973 20.0416 18.6182L19.6235 19.3704C19.5181 19.56 19.5053 19.7873 19.5888 19.9875C19.7873 20.4637 20.4104 20.5737 20.7629 20.197C22.7704 18.052 23.9998 15.1697 23.9998 12C23.9998 9.68697 23.3448 7.5273 22.2111 5.69507Z" fill="url(#paint5_linear_1_6176)"/>
<path d="M22.2111 5.69507L22.136 5.83596C21.5028 7.02312 21.6768 8.47907 22.5717 9.48363C23.0976 10.0738 23.3881 10.8367 23.3881 11.6272C23.3881 12.5523 22.9905 13.4328 22.2965 14.0445L21.8718 14.4188C21.5111 16.181 20.7643 17.8023 19.7234 19.1907L19.6235 19.3704C19.5181 19.56 19.5053 19.7873 19.5888 19.9875C19.7873 20.4637 20.4104 20.5737 20.7629 20.197C22.7705 18.052 23.9999 15.1697 23.9999 12C23.9999 9.68697 23.3449 7.5273 22.2111 5.69507Z" fill="url(#paint6_linear_1_6176)"/>
<path d="M13.4684 7.50287L13.9553 7.15031C14.1237 7.02838 14.3189 6.94866 14.5245 6.91779L15.719 6.73859C16.5485 6.61417 17.2728 6.1104 17.678 5.37591C18.2025 4.42532 18.2291 3.2784 17.7494 2.30447C17.3616 1.51699 16.679 0.91153 15.8474 0.630212C14.6396 0.221553 13.3456 0 11.9998 0C11.6827 0 11.3686 0.0127059 11.0577 0.0368471C12.0666 0.115153 13.0406 0.317788 13.9641 0.630212C14.7956 0.91153 15.4782 1.51699 15.8661 2.30447C16.3458 3.2784 16.3191 4.42532 15.7946 5.37591C15.3894 6.1104 14.6652 6.61417 13.8356 6.73859L12.6411 6.91779C12.4355 6.94861 12.2403 7.02838 12.072 7.15031L11.585 7.50287C11.2017 7.78052 10.9996 8.24475 11.0577 8.71454C11.1383 9.36527 11.6912 9.85393 12.3469 9.85393H12.7874C13.406 9.85393 14.0083 10.0528 14.5053 10.421C15.3156 11.0215 15.7537 12.0016 15.6605 13.0059L15.4467 15.3103C15.4073 15.7355 15.294 16.1506 15.1122 16.537L14.5624 17.7053C14.3611 18.133 14.0793 18.518 13.7322 18.8392L12.3245 20.1418L12.2107 20.5371C12.1051 20.9044 12.3808 21.2705 12.7629 21.2705C12.9076 21.2705 13.047 21.216 13.1532 21.1177L15.6155 18.8391C15.9625 18.518 16.2444 18.133 16.4457 17.7052L16.9955 16.5369C17.1773 16.1505 17.2905 15.7354 17.33 15.3102L17.5438 13.0058C17.6369 12.0016 17.199 11.0215 16.3886 10.421C15.8915 10.0527 15.2893 9.85388 14.6707 9.85388H14.2302C13.5745 9.85388 13.0216 9.36522 12.941 8.71449C12.8829 8.24471 13.0849 7.78052 13.4684 7.50287Z" fill="url(#paint7_linear_1_6176)"/>
<path d="M4.86727 17.8517C4.05123 17.4466 3.40887 16.7604 3.05833 15.9195L2.67748 15.0058C2.52181 14.6324 2.17447 14.3739 1.77207 14.3319C1.50977 14.3045 1.26723 14.3696 1.06836 14.4957C1.25828 14.6151 1.41113 14.7914 1.5005 15.0058L1.88134 15.9195C2.23188 16.7604 2.87424 17.4466 3.69028 17.8517C4.81113 18.4082 5.47052 19.6003 5.34619 20.8456L5.23956 21.9138C5.59626 22.1575 5.96628 22.3831 6.34925 22.5879L6.52323 20.8456C6.64751 19.6004 5.98812 18.4082 4.86727 17.8517Z" fill="url(#paint8_linear_1_6176)"/>
</g>
</g>
</g>
</g>
<defs>
<linearGradient id="paint0_linear_1_6176" x1="-0.388706" y1="12.2413" x2="29.0454" y2="12.2413" gradientUnits="userSpaceOnUse">
<stop stop-color="#60B7FF"/>
<stop offset="0.5857" stop-color="#0182FC"/>
<stop offset="1" stop-color="#2740B0"/>
</linearGradient>
<linearGradient id="paint1_linear_1_6176" x1="-5.74067" y1="11.6949" x2="25.7567" y2="11.6949" gradientUnits="userSpaceOnUse">
<stop stop-color="#60B7FF"/>
<stop offset="0.5857" stop-color="#0182FC"/>
<stop offset="1" stop-color="#2740B0"/>
</linearGradient>
<linearGradient id="paint2_linear_1_6176" x1="-1.69454" y1="12" x2="24.3128" y2="12" gradientUnits="userSpaceOnUse">
<stop stop-color="#60B7FF"/>
<stop offset="0.5857" stop-color="#0182FC"/>
<stop offset="1" stop-color="#2740B0"/>
</linearGradient>
<linearGradient id="paint3_linear_1_6176" x1="0.329732" y1="10.6353" x2="24.9922" y2="10.6353" gradientUnits="userSpaceOnUse">
<stop stop-color="#A2E62E"/>
<stop offset="0.5857" stop-color="#81B823"/>
<stop offset="1" stop-color="#037E73"/>
</linearGradient>
<linearGradient id="paint4_linear_1_6176" x1="0.32957" y1="18.4568" x2="24.992" y2="18.4568" gradientUnits="userSpaceOnUse">
<stop stop-color="#A2E62E"/>
<stop offset="0.5857" stop-color="#81B823"/>
<stop offset="1" stop-color="#037E73"/>
</linearGradient>
<linearGradient id="paint5_linear_1_6176" x1="0.329227" y1="13.0591" x2="24.9917" y2="13.0591" gradientUnits="userSpaceOnUse">
<stop stop-color="#A2E62E"/>
<stop offset="0.5857" stop-color="#81B823"/>
<stop offset="1" stop-color="#037E73"/>
</linearGradient>
<linearGradient id="paint6_linear_1_6176" x1="8.28222" y1="13.0591" x2="19.0437" y2="13.0591" gradientUnits="userSpaceOnUse">
<stop stop-color="#A2E62E"/>
<stop offset="0.5857" stop-color="#81B823"/>
<stop offset="1" stop-color="#037E73"/>
</linearGradient>
<linearGradient id="paint7_linear_1_6176" x1="-0.370587" y1="10.6353" x2="21.8659" y2="10.6353" gradientUnits="userSpaceOnUse">
<stop stop-color="#A2E62E"/>
<stop offset="0.5857" stop-color="#81B823"/>
<stop offset="1" stop-color="#037E73"/>
</linearGradient>
<linearGradient id="paint8_linear_1_6176" x1="-1.85226" y1="18.4568" x2="14.4625" y2="18.4568" gradientUnits="userSpaceOnUse">
<stop stop-color="#A2E62E"/>
<stop offset="0.5857" stop-color="#81B823"/>
<stop offset="1" stop-color="#037E73"/>
</linearGradient>
<clipPath id="clip0_1_6176">
<rect width="24" height="24" fill="white"/>
</clipPath>
<clipPath id="clip1_1_6176">
<rect width="24" height="24" fill="white"/>
</clipPath>
<clipPath id="clip2_1_6176">
<rect width="24" height="24" fill="white"/>
</clipPath>
</defs>
</svg>
