<svg width="134" height="36" viewBox="0 0 134 36" fill="none" xmlns="http://www.w3.org/2000/svg">
<g clip-path="url(#clip0_1_7116)">
<path d="M36 18C36 8.05887 27.9411 0 18 0C8.05887 0 0 8.05887 0 18C0 27.9411 8.05887 36 18 36C27.9411 36 36 27.9411 36 18Z" fill="#FEFA17"/>
<mask id="mask0_1_7116" style="mask-type:luminance" maskUnits="userSpaceOnUse" x="1" y="2" width="35" height="34">
<path d="M36 2.25H1.125V36H36V2.25Z" fill="white"/>
</mask>
<g mask="url(#mask0_1_7116)">
<path d="M36 35.9999H1.125C2.65423 35.2451 4.11995 34.3627 5.50726 33.3615C8.11772 31.4778 11.6613 29.588 15.7365 29.2258C22.6642 28.61 31.2457 33.7057 36 35.9999Z" fill="black"/>
<path d="M18.5598 24.2569C17.0833 20.7129 14.4256 19.1733 13.02 19.0344C12.6173 19.0078 12.2135 19.0659 11.8336 19.2051C11.4537 19.3442 11.1057 19.5615 10.8111 19.8435C11.033 19.5686 11.2737 19.3103 11.5317 19.0707C11.1596 18.7265 10.7226 18.3944 10.7226 18.3944C11.1124 18.5816 11.5376 18.8292 11.6911 18.9258C12.0947 18.5659 12.5252 18.2389 12.9787 17.9477C12.5904 17.6268 12.182 17.3324 11.7561 17.0662C12.2903 17.247 12.8065 17.4795 13.2976 17.7605C13.9066 17.4039 14.5402 17.0932 15.1934 16.8307C14.939 16.6143 14.6728 16.4127 14.3961 16.227C14.7783 16.3646 15.1495 16.5321 15.5064 16.7281C16.2095 16.4557 16.9297 16.2318 17.6621 16.0579C14.0358 15.0255 11.2009 16.1787 10.2087 17.2232C9.80576 17.654 9.55079 18.207 9.48229 18.799C9.04959 17.7912 8.29323 16.9648 7.3384 16.4564C5.1768 15.5326 3.0152 17.3439 3.0152 17.3439C3.91354 17.1663 4.84358 17.276 5.67881 17.6579L6.48203 17.1205L5.93868 17.7786C6.78907 18.2274 7.55809 18.8217 8.21249 19.5355C7.66847 19.1948 7.02466 19.0602 6.39344 19.1552C4.99372 19.3906 2.44823 21.1174 1.21387 24.758C1.75731 24.2569 2.33566 23.7969 2.94433 23.3815C2.99425 22.9741 3.0712 22.5707 3.17466 22.174C3.17004 22.5168 3.18582 22.8595 3.22191 23.2004C3.80497 22.7975 4.417 22.4402 5.05278 22.1317C5.10411 21.5588 5.21094 20.9925 5.3717 20.4412C5.33766 20.9518 5.33766 21.4641 5.3717 21.9747C5.8592 21.7572 6.36278 21.5796 6.87773 21.4434C6.87773 21.2563 6.93089 20.7612 7.00176 20.3265C7.00176 20.3265 7.00176 20.8819 7.08444 21.3891C7.27737 21.3448 7.47424 21.3086 7.67505 21.2804C6.96632 21.9928 6.2517 23.5324 6.31666 26.841C6.31666 26.841 6.73599 25.8569 7.27344 24.8305C7.16948 24.4181 7.11397 23.9945 7.10807 23.5686C7.10807 23.5686 7.26163 24.0698 7.4329 24.5226C7.59236 24.2207 7.76364 23.9188 7.929 23.6592L7.97035 23.5928C7.91129 23.2668 7.80498 22.6147 7.77545 22.1619C7.77545 22.1619 7.94672 22.7656 8.14753 23.3151C8.55059 22.6797 9.02426 22.0942 9.55906 21.5702C12.8546 27.3542 12.5121 35.7766 12.5121 35.7766L14.0595 35.6377C13.6342 27.6078 11.0828 22.82 10.132 21.2925C10.8994 21.15 11.6856 21.15 12.453 21.2925C12.453 20.7793 12.453 20.2238 12.453 20.2238C12.5534 20.6525 12.6243 21.1476 12.6479 21.3287C13.1717 21.4282 13.6871 21.5695 14.1894 21.7513C14.2003 21.2331 14.1766 20.7146 14.1185 20.1997C14.3159 20.7392 14.4603 21.2974 14.5497 21.866C15.2148 22.1201 15.8604 22.4248 16.4809 22.7777C16.5002 22.4359 16.5002 22.0932 16.4809 21.7513C16.6105 22.1461 16.7131 22.5496 16.788 22.9588C17.4084 23.3475 18.0005 23.7813 18.5598 24.2569Z" fill="black"/>
<path d="M9.57099 17.821C10.4215 12.4415 13.5517 9.41063 15.4416 8.72838C15.9844 8.55036 16.5574 8.48904 17.1246 8.54826C17.6917 8.60749 18.2407 8.78598 18.7371 9.07253C18.3414 8.77967 17.9248 8.51732 17.491 8.28764C17.8867 7.68389 18.3769 7.08013 18.3769 7.08013C17.9044 7.47257 17.4083 7.96161 17.2252 8.14274C16.5543 7.79442 15.8571 7.50166 15.1404 7.26729C15.563 6.68745 16.0227 6.13683 16.5165 5.61904C15.8422 6.04042 15.2111 6.5299 14.6325 7.08013C13.6756 6.8067 12.7005 6.60491 11.7149 6.47637C11.99 6.08203 12.2858 5.70313 12.6008 5.34131C12.1259 5.66889 11.6739 6.03001 11.2483 6.42203C10.2122 6.29025 9.16781 6.23778 8.12402 6.26506C12.7603 3.5723 17.0303 4.17002 18.7312 5.26886C19.4258 5.72057 19.9616 6.38672 20.2609 7.17069C20.6034 5.68545 21.2413 4.09757 22.4166 3.21005C25.0389 1.21765 28.6061 2.9444 28.6061 2.9444C27.3162 3.01303 26.0785 3.48749 25.0625 4.30285L23.7809 3.84399L24.7495 4.56246C23.7309 5.46886 22.8719 6.5471 22.2099 7.7503C22.8483 7.11047 23.6823 6.71405 24.5723 6.62731C26.5803 6.47637 30.6555 7.94954 33.5435 12.5139C32.6257 12.0029 31.6745 11.5571 30.6968 11.1796C30.4975 10.631 30.2587 10.0982 29.9822 9.58572C30.1011 10.0549 30.1938 10.5306 30.2598 11.0106C29.3242 10.6632 28.3648 10.3867 27.3894 10.1834C27.1315 9.41393 26.797 8.67348 26.3913 7.97369C26.5982 8.66598 26.758 9.37204 26.8697 10.0868C26.1283 9.95561 25.3778 9.88495 24.6254 9.87552C24.5427 9.62798 24.3242 8.95781 24.0821 8.39028C24.0821 8.39028 24.2415 9.16309 24.3242 9.87552C24.0466 9.87552 23.7336 9.87552 23.4915 9.92382C24.6727 10.6604 26.1905 12.52 27.1945 17.0844C27.1945 17.0844 26.2909 15.8769 25.216 14.6694C25.2247 14.0597 25.1592 13.4513 25.0211 12.8581C25.0211 12.8581 24.9798 13.6007 24.8971 14.2829C24.5782 13.9267 24.2474 13.5766 23.9285 13.2686L23.8517 13.1962C23.8517 12.7253 23.7513 11.8015 23.6391 11.1676C23.6391 11.1676 23.6391 12.0611 23.5092 12.8822C22.7577 12.1646 21.9273 11.5385 21.0346 11.0166C18.4418 20.073 21.6901 31.5444 21.6901 31.5444L19.5167 31.8945C17.4496 20.7431 19.3573 13.2626 20.1546 10.8295C19.0552 10.8928 17.9755 11.1544 16.9653 11.6023C16.7527 10.914 16.5933 10.1412 16.5933 10.1412C16.5985 10.6718 16.63 11.2017 16.6878 11.7291C15.9999 12.0439 15.3382 12.4154 14.7092 12.84C14.5309 12.1373 14.3987 11.4233 14.3135 10.7027C14.2244 11.5045 14.2125 12.3134 14.2781 13.1177C13.4669 13.7075 12.699 14.3573 11.9807 15.0618C11.8508 14.5951 11.7463 14.1214 11.6676 13.643C11.6279 14.2279 11.6279 14.815 11.6676 15.3999C10.9117 16.1533 10.2109 16.9625 9.57099 17.821Z" fill="black"/>
</g>
<path d="M46.8602 26.5V14.36H42.2002V12.1H53.9302V14.36H49.2702V26.5H46.8602ZM54.533 26.5V15.7H56.663V18.33L56.403 17.99C56.5363 17.63 56.713 17.3033 56.933 17.01C57.1597 16.71 57.4297 16.4633 57.743 16.27C58.0097 16.09 58.303 15.95 58.623 15.85C58.9497 15.7433 59.283 15.68 59.623 15.66C59.963 15.6333 60.293 15.6467 60.613 15.7V17.95C60.293 17.8567 59.923 17.8267 59.503 17.86C59.0897 17.8933 58.7163 18.01 58.383 18.21C58.0497 18.39 57.7763 18.62 57.563 18.9C57.3563 19.18 57.203 19.5 57.103 19.86C57.003 20.2133 56.953 20.5967 56.953 21.01V26.5H54.533ZM65.2874 26.8C64.5074 26.8 63.8474 26.6533 63.3074 26.36C62.7674 26.06 62.3574 25.6633 62.0774 25.17C61.8041 24.6767 61.6674 24.1333 61.6674 23.54C61.6674 23.02 61.7541 22.5533 61.9274 22.14C62.1007 21.72 62.3674 21.36 62.7274 21.06C63.0874 20.7533 63.5541 20.5033 64.1274 20.31C64.5607 20.17 65.0674 20.0433 65.6474 19.93C66.2341 19.8167 66.8674 19.7133 67.5474 19.62C68.2341 19.52 68.9507 19.4133 69.6974 19.3L68.8374 19.79C68.8441 19.0433 68.6774 18.4933 68.3374 18.14C67.9974 17.7867 67.4241 17.61 66.6174 17.61C66.1307 17.61 65.6607 17.7233 65.2074 17.95C64.7541 18.1767 64.4374 18.5667 64.2574 19.12L62.0574 18.43C62.3241 17.5167 62.8307 16.7833 63.5774 16.23C64.3307 15.6767 65.3441 15.4 66.6174 15.4C67.5774 15.4 68.4207 15.5567 69.1474 15.87C69.8807 16.1833 70.4241 16.6967 70.7774 17.41C70.9707 17.79 71.0874 18.18 71.1274 18.58C71.1674 18.9733 71.1874 19.4033 71.1874 19.87V26.5H69.0774V24.16L69.4274 24.54C68.9407 25.32 68.3707 25.8933 67.7174 26.26C67.0707 26.62 66.2607 26.8 65.2874 26.8ZM65.7674 24.88C66.3141 24.88 66.7807 24.7833 67.1674 24.59C67.5541 24.3967 67.8607 24.16 68.0874 23.88C68.3207 23.6 68.4774 23.3367 68.5574 23.09C68.6841 22.7833 68.7541 22.4333 68.7674 22.04C68.7874 21.64 68.7974 21.3167 68.7974 21.07L69.5374 21.29C68.8107 21.4033 68.1874 21.5033 67.6674 21.59C67.1474 21.6767 66.7007 21.76 66.3274 21.84C65.9541 21.9133 65.6241 21.9967 65.3374 22.09C65.0574 22.19 64.8207 22.3067 64.6274 22.44C64.4341 22.5733 64.2841 22.7267 64.1774 22.9C64.0774 23.0733 64.0274 23.2767 64.0274 23.51C64.0274 23.7767 64.0941 24.0133 64.2274 24.22C64.3607 24.42 64.5541 24.58 64.8074 24.7C65.0674 24.82 65.3874 24.88 65.7674 24.88ZM76.3202 26.5L72.4002 15.7H74.8102L77.5302 23.53L80.2402 15.7H82.6602L78.7402 26.5H76.3202ZM84.6549 14.06V11.85H87.0649V14.06H84.6549ZM84.6549 26.5V15.7H87.0649V26.5H84.6549ZM90.2604 26.5V11.8H92.6704V26.5H90.2604ZM98.6858 26.8C97.9058 26.8 97.2458 26.6533 96.7058 26.36C96.1658 26.06 95.7558 25.6633 95.4758 25.17C95.2025 24.6767 95.0658 24.1333 95.0658 23.54C95.0658 23.02 95.1525 22.5533 95.3258 22.14C95.4992 21.72 95.7658 21.36 96.1258 21.06C96.4858 20.7533 96.9525 20.5033 97.5258 20.31C97.9592 20.17 98.4658 20.0433 99.0458 19.93C99.6325 19.8167 100.266 19.7133 100.946 19.62C101.632 19.52 102.349 19.4133 103.096 19.3L102.236 19.79C102.242 19.0433 102.076 18.4933 101.736 18.14C101.396 17.7867 100.822 17.61 100.016 17.61C99.5292 17.61 99.0592 17.7233 98.6058 17.95C98.1525 18.1767 97.8358 18.5667 97.6558 19.12L95.4558 18.43C95.7225 17.5167 96.2292 16.7833 96.9758 16.23C97.7292 15.6767 98.7425 15.4 100.016 15.4C100.976 15.4 101.819 15.5567 102.546 15.87C103.279 16.1833 103.822 16.6967 104.176 17.41C104.369 17.79 104.486 18.18 104.526 18.58C104.566 18.9733 104.586 19.4033 104.586 19.87V26.5H102.476V24.16L102.826 24.54C102.339 25.32 101.769 25.8933 101.116 26.26C100.469 26.62 99.6592 26.8 98.6858 26.8ZM99.1658 24.88C99.7125 24.88 100.179 24.7833 100.566 24.59C100.952 24.3967 101.259 24.16 101.486 23.88C101.719 23.6 101.876 23.3367 101.956 23.09C102.082 22.7833 102.152 22.4333 102.166 22.04C102.186 21.64 102.196 21.3167 102.196 21.07L102.936 21.29C102.209 21.4033 101.586 21.5033 101.066 21.59C100.546 21.6767 100.099 21.76 99.7258 21.84C99.3525 21.9133 99.0225 21.9967 98.7358 22.09C98.4558 22.19 98.2192 22.3067 98.0258 22.44C97.8325 22.5733 97.6825 22.7267 97.5758 22.9C97.4758 23.0733 97.4258 23.2767 97.4258 23.51C97.4258 23.7767 97.4925 24.0133 97.6258 24.22C97.7592 24.42 97.9525 24.58 98.2058 24.7C98.4658 24.82 98.7858 24.88 99.1658 24.88Z" fill="black"/>
</g>
<defs>
<clipPath id="clip0_1_7116">
<rect width="134" height="36" fill="white"/>
</clipPath>
</defs>
</svg>
