<svg width="22" height="23" viewBox="0 0 22 23" fill="none" xmlns="http://www.w3.org/2000/svg">
<g clip-path="url(#clip0_1_7011)">
<mask id="mask0_1_7011" style="mask-type:luminance" maskUnits="userSpaceOnUse" x="0" y="0" width="22" height="23">
<path d="M22 0.5H0V22.5H22V0.5Z" fill="white"/>
</mask>
<g mask="url(#mask0_1_7011)">
<path d="M11 1.78906C13.2406 1.78997 15.412 2.56545 17.1463 3.98411C18.8806 5.40278 20.0711 7.37739 20.5161 9.57336C20.9611 11.7693 20.6333 14.0516 19.5881 16.0336C18.5429 18.0155 16.8447 19.5751 14.7812 20.4482C12.408 21.4511 9.73363 21.4701 7.34639 20.5011C4.95914 19.5321 3.05461 17.6545 2.05176 15.2812C1.04891 12.908 1.02989 10.2336 1.99889 7.84639C2.96789 5.45914 4.84553 3.55461 7.21875 2.55176C8.41496 2.04554 9.70109 1.78613 11 1.78906ZM11 0.5C4.92508 0.5 0 5.42508 0 11.5C0 17.5749 4.92508 22.5 11 22.5C17.0749 22.5 22 17.5749 22 11.5C22 5.42508 17.0749 0.5 11 0.5Z" fill="#575756"/>
<path d="M14.2094 17.4235C13.5705 17.3805 12.6699 17.1601 11.7907 16.8455C8.69097 15.7361 5.6664 12.7803 5.02359 8.64583C4.90929 7.90977 5.02961 7.23731 5.58734 6.68989C5.77425 6.50684 5.94054 6.30317 6.12316 6.11583C6.81066 5.40813 7.81527 5.39008 8.52726 6.06985C8.75285 6.28469 8.9823 6.49653 9.2023 6.71825C9.50356 7.01533 9.67798 7.41759 9.68896 7.84054C9.69994 8.2635 9.54661 8.67426 9.26117 8.98657C9.08929 9.17735 8.90882 9.35868 8.7275 9.53958C8.52941 9.73723 8.2832 9.85067 8.01894 9.93317C7.69281 10.0354 7.63222 10.1721 7.78047 10.4836C8.71718 12.4455 10.1834 13.8582 12.1792 14.7216C12.446 14.8368 12.5693 14.7848 12.6768 14.5201C12.9122 13.9396 13.3441 13.5163 13.8403 13.1743C14.4019 12.7876 15.2063 12.8735 15.7383 13.3307C16.0299 13.5813 16.3086 13.8466 16.5732 14.1256C16.8579 14.4302 17.016 14.8317 17.0156 15.2486C17.0152 15.6655 16.8563 16.0667 16.571 16.3707C16.4881 16.461 16.4026 16.5491 16.3231 16.6419C15.8444 17.1983 15.2373 17.4587 14.2094 17.4235Z" fill="#575756"/>
</g>
</g>
<defs>
<clipPath id="clip0_1_7011">
<rect width="22" height="23" fill="white"/>
</clipPath>
</defs>
</svg>
